<svg width="112" height="112" viewBox="0 0 112 112" fill="none" xmlns="http://www.w3.org/2000/svg">
<g filter="url(#filter0_b_1094_77)">
<path d="M0 15C0 6.71573 6.71573 0 15 0H97C105.284 0 112 6.71573 112 15V97C112 105.284 105.284 112 97 112H15C6.71573 112 0 105.284 0 97V15Z" fill="#2B273D"/>
<path d="M63.8396 41.4946H48.1396V70.1292H63.8396V41.4946Z" fill="#FF5F00"/>
<path d="M49.1339 55.8129C49.1314 53.0552 49.7471 50.333 50.9344 47.8525C52.1218 45.3721 53.8495 43.1982 55.987 41.4956C53.3401 39.384 50.1612 38.0708 46.8137 37.7062C43.4661 37.3415 40.0851 37.9401 37.0569 39.4335C34.0288 40.9269 31.4757 43.2549 29.6895 46.1514C27.9033 49.0478 26.9561 52.3959 26.9561 55.8129C26.9561 59.2299 27.9033 62.578 29.6895 65.4744C31.4757 68.3709 34.0288 70.6989 37.0569 72.1923C40.0851 73.6857 43.4661 74.2843 46.8137 73.9196C50.1612 73.555 53.3401 72.2418 55.987 70.1302C53.8495 68.4276 52.1218 66.2537 50.9345 63.7732C49.7472 61.2927 49.1314 58.5706 49.1339 55.8129V55.8129Z" fill="#EB001B"/>
<path d="M85.0203 55.8129C85.0204 59.2298 84.0733 62.5779 82.2872 65.4744C80.5011 68.3708 77.9481 70.6988 74.92 72.1922C71.8919 73.6857 68.5109 74.2843 65.1634 73.9196C61.8159 73.555 58.6371 72.2418 55.9902 70.1302C58.1258 68.4258 59.8522 66.2517 61.0394 63.7716C62.2265 61.2915 62.8433 58.5702 62.8433 55.8129C62.8433 53.0556 62.2265 50.3343 61.0394 47.8542C59.8522 45.3741 58.1258 43.1999 55.9902 41.4956C58.6371 39.384 61.8159 38.0708 65.1634 37.7062C68.5109 37.3415 71.8919 37.9401 74.92 39.4335C77.9481 40.927 80.5011 43.255 82.2872 46.1514C84.0733 49.0479 85.0204 52.3959 85.0203 55.8129V55.8129Z" fill="#F79E1B"/>
</g>
<defs>
<filter id="filter0_b_1094_77" x="-22" y="-22" width="156" height="156" filterUnits="userSpaceOnUse" color-interpolation-filters="sRGB">
<feFlood flood-opacity="0" result="BackgroundImageFix"/>
<feGaussianBlur in="BackgroundImage" stdDeviation="11"/>
<feComposite in2="SourceAlpha" operator="in" result="effect1_backgroundBlur_1094_77"/>
<feBlend mode="normal" in="SourceGraphic" in2="effect1_backgroundBlur_1094_77" result="shape"/>
</filter>
</defs>
</svg>
