<svg width="112" height="112" viewBox="0 0 112 112" fill="none" xmlns="http://www.w3.org/2000/svg">
<g filter="url(#filter0_b_1094_78)">
<path d="M0 15C0 6.71573 6.71573 0 15 0H97C105.284 0 112 6.71573 112 15V97C112 105.284 105.284 112 97 112H15C6.71573 112 0 105.284 0 97V15Z" fill="#2B273D"/>
<path d="M51.0753 67.6137H45.0322L48.8091 44.4023H54.8528L51.0753 67.6137ZM39.9484 44.4023L34.1871 60.3673L33.5054 56.9294L33.506 56.9306L31.4726 46.4922C31.4726 46.4922 31.2267 44.4023 28.6059 44.4023H19.0815L18.9697 44.7953C18.9697 44.7953 21.8823 45.4013 25.291 47.4484L30.5413 67.6143H36.8377L46.4522 44.4023H39.9484V44.4023ZM87.4806 67.6137H93.0295L88.1915 44.4017H83.3337C81.0904 44.4017 80.544 46.1315 80.544 46.1315L71.5312 67.6137H77.8307L79.0905 64.1659H86.7728L87.4806 67.6137ZM80.8309 59.403L84.0061 50.7168L85.7924 59.403H80.8309ZM72.0037 49.9841L72.8661 44.9996C72.8661 44.9996 70.2049 43.9875 67.4308 43.9875C64.4319 43.9875 57.3103 45.2982 57.3103 51.6717C57.3103 57.6682 65.6687 57.7428 65.6687 60.8925C65.6687 64.0423 58.1715 63.4779 55.6972 61.4917L54.7988 66.7034C54.7988 66.7034 57.4972 68.0141 61.6199 68.0141C65.7439 68.0141 71.9652 65.8789 71.9652 60.0674C71.9652 54.0323 63.5316 53.4704 63.5316 50.8465C63.5322 48.222 69.4177 48.5592 72.0037 49.9841V49.9841Z" fill="#2566AF"/>
<path d="M33.506 56.9302L31.4726 46.4918C31.4726 46.4918 31.2267 44.4019 28.6059 44.4019H19.0815L18.9697 44.7949C18.9697 44.7949 23.5475 45.7436 27.9385 49.2982C32.1369 52.6957 33.506 56.9302 33.506 56.9302Z" fill="#E6A540"/>
</g>
<defs>
<filter id="filter0_b_1094_78" x="-22" y="-22" width="156" height="156" filterUnits="userSpaceOnUse" color-interpolation-filters="sRGB">
<feFlood flood-opacity="0" result="BackgroundImageFix"/>
<feGaussianBlur in="BackgroundImage" stdDeviation="11"/>
<feComposite in2="SourceAlpha" operator="in" result="effect1_backgroundBlur_1094_78"/>
<feBlend mode="normal" in="SourceGraphic" in2="effect1_backgroundBlur_1094_78" result="shape"/>
</filter>
</defs>
</svg>
