<svg width="112" height="112" viewBox="0 0 112 112" fill="none" xmlns="http://www.w3.org/2000/svg">
<g filter="url(#filter0_b_1094_80)">
<path d="M0 15C0 6.71573 6.71573 0 15 0H97C105.284 0 112 6.71573 112 15V97C112 105.284 105.284 112 97 112H15C6.71573 112 0 105.284 0 97V15Z" fill="#2B273D"/>
<path d="M81.3131 54.318L82 52.1609L79.766 52.2315C78.7195 52.1931 77.7116 51.84 76.8642 51.2173H77.166C78.5269 51.2108 79.7723 50.434 80.3758 49.2142L81.3581 47.115C80.5877 47.1215 79.8173 47.0765 79.0533 46.9802C78.3215 46.8069 77.6667 46.4088 77.1723 45.844C76.5046 45.1313 75.5802 44.7269 74.6044 44.7205C74.2257 44.7205 73.8469 44.7846 73.481 44.9002C73.5323 44.7269 73.5773 44.5536 73.6094 44.3738C73.7635 43.1219 73.4104 41.8573 72.6336 40.8622L70.9388 38.7758L69.8988 41.2153C69.7319 41.562 69.4815 41.8637 69.1605 42.082C68.9808 41.2089 68.5571 40.4128 67.9279 39.7837C66.875 38.7052 65.4306 38.1017 63.9219 38.1145C63.6588 38.1145 63.3956 38.1338 63.1388 38.1723L61.1102 38.5703C61.2835 37.8899 61.5594 37.2415 61.9319 36.6444L63.0489 34.9047L60.2371 35.1679L59.3383 33.242L57.605 34.1857L56 32.6L54.395 34.1857L52.6617 33.2869L51.7629 35.1679L48.9511 34.8469L50.0681 36.5931C50.4405 37.1901 50.7165 37.8385 50.8898 38.519L48.964 38.1402H48.8998C48.6302 38.1017 48.3605 38.0824 48.0908 38.0824C46.5823 38.0696 45.1377 38.6731 44.085 39.7516C43.4494 40.3871 43.0129 41.196 42.8395 42.082C42.5314 41.8701 42.281 41.5812 42.1141 41.241L41.0677 38.7822L39.36 40.875C38.5961 41.8701 38.2558 43.1284 38.4035 44.3738C38.4356 44.5536 38.4805 44.7269 38.5318 44.9002C38.1659 44.7846 37.7872 44.7205 37.4084 44.7205C36.4326 44.7269 35.5082 45.1313 34.8405 45.844C34.3526 46.4025 33.7042 46.8005 32.9788 46.9802C32.2084 47.0958 31.4252 47.1407 30.642 47.115L31.5985 49.2463C32.202 50.4661 33.4474 51.2429 34.8084 51.2494H35.1101C34.2756 51.8592 33.2805 52.2123 32.2469 52.2573L30 52.1609L30.6869 54.318C31.2005 56.0063 32.6578 57.2454 34.4104 57.4701C34.2306 58.6063 33.5116 59.5886 32.4844 60.1023L30.764 60.8019L31.6884 62.4133C32.4523 63.6009 33.7684 64.3071 35.1743 64.2942C35.5402 64.2942 35.9062 64.2558 36.2657 64.1788C36.3556 64.5704 36.4711 64.9619 36.5995 65.3407C36.9205 66.1881 36.9398 67.1125 36.6637 67.9728L35.8291 69.7254L37.6973 70.2198C38.1146 70.3288 38.5511 70.3802 38.9812 70.3802C39.2894 70.3802 39.5911 70.3481 39.8928 70.2775C40.1111 70.2261 40.3294 70.1619 40.5348 70.0785C40.7723 70.5086 41.0741 70.9067 41.4143 71.2598C42.6084 72.4859 44.3032 73.1086 46.4538 73.1086H47.9881L44.8232 74.4246L47.2242 75.6123C48.1936 76.0874 49.1823 76.5175 50.1902 76.8963L49.9012 77.7308L50.7294 78.1096C52.1032 78.6488 53.5605 78.9506 55.0371 79.0019H57.0079C58.4781 78.9506 59.9289 78.6425 61.2963 78.1032L62.0988 77.7308L61.8163 76.8963C62.8371 76.5046 63.8385 76.0617 64.8143 75.5673L67.1704 74.4246L64.0119 73.1407H65.5525C67.7032 73.1407 69.4044 72.4988 70.5921 71.2919C70.9388 70.9388 71.234 70.5407 71.4716 70.1106C71.6771 70.194 71.8954 70.2582 72.1136 70.3096C72.4154 70.3802 72.7171 70.4123 73.0252 70.4123C73.4554 70.4123 73.8919 70.3546 74.3092 70.2519L76.1837 69.7575L75.3684 68.0371C75.0602 67.164 75.0731 66.2074 75.4005 65.3407C75.5354 64.949 75.6444 64.5511 75.7343 64.1531C76.0938 64.2301 76.4662 64.2686 76.8321 64.2686C78.2508 64.2815 79.5733 63.5496 80.3244 62.3427L81.236 60.7506L79.5412 60.0573C78.514 59.5436 77.795 58.5615 77.6154 57.4252C79.3679 57.194 80.8252 55.9615 81.3388 54.2667L81.3131 54.318V54.318Z" fill="white"/>
<path d="M63.7163 61.1358H48.3088V66.9135C48.3088 69.2888 50.0228 70.7654 52.5586 70.7654C54.6772 70.7654 55.2357 70.8488 56.019 71.632C56.5132 71.0992 57.213 70.7975 57.9449 70.8102V70.7204L58.4328 69.2181L57.6046 68.3129C57.2707 68.4158 56.9241 68.4542 56.5774 68.435C56.0574 68.4285 55.5438 68.3771 55.0367 68.2744H54.8763C54.8055 68.2744 54.8055 68.2744 54.7863 68.3129L54.6901 68.4735L54.5167 68.7623L54.1828 68.6854L52.6999 68.3387L52.4945 68.6725V68.711L52.6742 68.91L52.5972 69.1668C52.4624 69.4814 52.2698 69.7639 52.0259 70.0079L51.6536 70.4058L51.3132 69.9821L51.0628 69.6675C50.7932 69.3144 50.729 68.8523 50.8832 68.435L50.4659 68.6083L50.2797 68.1975L50.177 67.9085C49.9138 67.2987 50.1128 66.5925 50.6455 66.2073L51.8397 65.5654L52.9759 65.79C52.9759 65.6809 53.0466 65.2893 53.0787 65.1929H53.0145L52.3725 65.4369L51.7305 65.0004C51.6021 64.872 51.5957 64.6602 51.7305 64.5254L52.3403 63.6009L50.7932 61.675L53.1107 62.5866L53.2713 62.394L53.5922 62.0088L53.9582 62.3554C54.0545 62.4517 54.1186 62.5673 54.1507 62.7021C54.7928 62.9589 55.9803 63.71 56.0767 64.9298L55.7107 65.0775C55.7557 65.1416 55.8136 65.1929 55.8841 65.225L57.579 65.392L57.733 65.3471C58.0219 65.2379 58.3301 65.1802 58.6382 65.1737C58.9463 65.1737 59.248 65.2444 59.5241 65.3792C59.6461 65.3342 59.7809 65.3085 59.9093 65.3021H59.9928C60.898 65.3021 61.3538 65.9827 61.7132 66.5219L61.8994 66.7915C62.214 67.2409 62.6313 67.8958 62.6505 67.9214L62.8367 68.2102L62.6055 68.4798C62.3938 68.7623 62.0599 68.9229 61.7068 68.9229C61.6041 68.9293 61.5014 68.9293 61.3986 68.9229C61.3088 68.9036 61.219 68.8779 61.129 68.8394C61.129 68.9293 61.129 69.0385 61.0776 69.1283L60.8145 70.6433C62.5607 70.2902 63.7932 68.7239 63.7226 66.9392L63.7163 61.1358V61.1358ZM48.2895 60.6671H60.288C59.8001 60.1536 59.6332 59.4153 59.8515 58.7412C59.6911 58.6642 59.5369 58.5615 59.4021 58.4459C58.9334 58.7925 57.4763 59.8325 57.1295 60.0958L57.0525 60.1471L52.3403 59.3125H52.2441C52.09 59.319 51.9359 59.319 51.7819 59.3125C51.7369 59.5244 51.5507 59.6721 51.339 59.6721H51.2619C51.0115 59.6271 50.8382 59.3896 50.8767 59.1392V59.0365C50.2668 58.6 49.978 57.8425 50.1384 57.1106V57.0271L50.209 56.9758C50.209 56.9758 50.299 56.9115 50.4209 56.8409L50.0807 56.7896C49.9522 56.7639 49.8688 56.6484 49.888 56.52C49.9073 56.3915 50.0228 56.3081 50.1513 56.3273H50.1576L50.973 56.4558L51.05 53.5861L52.2634 52.3021L53.0209 53.8942L52.2249 56.6548L52.9438 56.7704C53.0722 56.796 53.1557 56.9115 53.1365 57.04C53.1172 57.1555 53.0209 57.2325 52.9053 57.2325H52.8668L52.2826 57.1363V57.1812C52.3468 57.2967 52.4432 57.3867 52.5651 57.4444L56.1538 57.5021L57.0717 56.5971C56.372 56.3531 55.8713 55.7367 55.7878 54.9985C55.3384 54.8252 54.9725 54.4913 54.7671 54.0612C54.5938 53.6567 54.5617 53.2009 54.6836 52.7773C54.1186 52.5525 53.6051 52.2123 53.1878 51.7758H47.8594C48.1163 52.405 48.2638 53.0725 48.2895 53.7467V60.6671V60.6671Z" fill="#FCE527"/>
<path d="M53.2142 63.6588C53.1371 63.6588 53.0665 63.7165 53.06 63.7936V63.8C53.0536 63.8835 53.1179 63.9605 53.2013 63.9669H53.2077C53.2975 63.9669 53.3617 63.8963 53.3617 63.8129C53.3617 63.7229 53.2975 63.6588 53.2142 63.6588V63.6588Z" fill="#222220"/>
<path d="M53.2082 63.6525C53.2145 63.6525 53.2145 63.6589 53.2145 63.6589C53.221 63.6589 53.221 63.6525 53.2274 63.6525H53.2082V63.6525ZM63.6979 74.1808L62.812 73.8406L63.0559 72.9225L63.3255 71.921C62.1123 72.5438 60.8411 73.0445 59.5315 73.4169C58.8896 73.5966 58.4273 73.68 58.4273 73.68V74.3285C57.6377 74.4569 56.8417 74.5275 56.0392 74.5339H55.9686C55.1661 74.5275 54.37 74.4569 53.5804 74.3285V73.6865C53.5804 73.6865 53.1117 73.5966 52.4698 73.4169C51.1601 73.0445 49.889 72.5438 48.6757 71.921L48.939 72.9225L49.1892 73.8406L48.2969 74.1808L47.334 74.5468C48.6565 75.2337 50.0367 75.805 51.4619 76.2544L51.1217 77.1789C52.6688 77.7695 54.3251 78.0583 55.9813 78.0198H56.0199C57.6761 78.0583 59.3325 77.7695 60.8796 77.1789L60.5458 76.2544C61.9646 75.805 63.3448 75.2337 64.6673 74.5468L63.6979 74.1808ZM48.4061 74.6045L49.844 74.1231L49.414 72.7108C50.3577 73.1793 51.3334 73.571 52.3413 73.8791L51.6352 75.805C50.5246 75.5097 49.4396 75.1052 48.4061 74.6045ZM56.0392 77.5641L56.0071 77.5383C54.5947 77.5319 53.1888 77.3393 51.8278 76.967L52.6944 74.6173C53.773 74.887 54.8836 75.0346 56.0006 75.041H56.0713C57.1882 75.0283 58.2988 74.887 59.3774 74.6173L60.244 76.967C58.8767 77.3522 57.4579 77.5512 56.0392 77.5641V77.5641ZM60.4174 75.8435V75.8243L59.7113 73.8983C60.7192 73.5902 61.695 73.1987 62.6386 72.73L62.2086 74.1423L63.6658 74.6302C62.6258 75.1373 61.5344 75.5483 60.4174 75.8435V75.8435ZM56.0007 37.5369C57.4515 37.4984 58.8767 37.9349 60.0579 38.7759C60.2442 37.8258 60.5972 36.9142 61.1044 36.086L59.6471 36.2529L58.8896 34.6287L57.4194 35.3863L56.0007 33.9803L54.5819 35.3863L53.1117 34.6287L52.3542 36.2529L50.8969 36.086C51.4042 36.9142 51.7572 37.8258 51.9434 38.7759C53.1246 37.9349 54.5498 37.4984 56.0007 37.5369ZM52.29 36.8179L52.6945 36.8628L52.8678 36.4969L53.375 35.4055L54.3186 35.8934L54.6846 36.0796L54.9799 35.81L56.0007 34.7764L57.0213 35.81L57.3167 36.0989L57.6826 35.9127L58.6199 35.4248L59.1334 36.5161L59.3069 36.8821L59.7113 36.8371L60.0965 36.7922C59.9424 37.1453 59.8076 37.5112 59.6984 37.8836C57.3809 36.6959 54.6269 36.6959 52.3093 37.8836C52.2001 37.5112 52.0653 37.1453 51.9113 36.7922L52.29 36.8179V36.8179ZM75.0418 50.7872L74.8684 50.5754C73.6743 49.0539 72.538 47.6095 70.5095 46.9481C70.5929 46.8776 70.6764 46.8133 70.7662 46.7556C71.7291 46.2099 72.4097 45.2727 72.628 44.1877C72.737 43.2054 72.461 42.2233 71.8576 41.4401L71.2156 40.6376L70.8112 41.5941C70.8112 41.6519 70.0985 43.1862 68.6605 43.1862H68.2368C68.3139 42.1783 67.948 41.1833 67.2353 40.4643C66.3687 39.5783 65.1747 39.084 63.9356 39.0904C63.7045 39.0904 63.4734 39.1097 63.2487 39.1418L62.2664 39.3344L62.8764 40.1368C63.3514 40.7788 63.7815 41.8894 63.2743 42.4865C63.0304 42.6983 62.7543 42.8652 62.4526 42.9808C61.8107 43.2825 60.8862 43.7127 60.8862 44.7912C60.8862 45.491 61.4318 46.2227 62.4141 46.8454C65.3095 48.6816 67.1005 50.5754 67.8774 52.7068C69.0778 55.9551 67.5114 57.8041 65.9899 58.7798L65.3095 59.2164L65.9064 59.762C66.4393 60.2179 67.0941 60.5003 67.7939 60.571H68.378C68.9751 60.571 69.5657 60.4875 70.137 60.3141C69.9958 60.5645 69.8226 60.802 69.6364 61.0203C68.7697 62.0281 67.4857 62.5803 66.1568 62.5097H65.5855L65.5405 63.081C65.5341 63.8835 65.8872 64.641 66.497 65.161C66.6576 65.3023 66.8374 65.4179 67.0299 65.5077C66.0797 66.4322 65.5405 67.6968 65.5212 69.0258C65.5212 69.7512 65.3543 70.4702 65.0397 71.125L64.3978 72.0879H65.5405C67.428 72.0879 68.8724 71.5679 69.8739 70.5344C70.3939 69.9887 70.7791 69.3275 71.0037 68.6085C71.3761 68.923 71.8126 69.1414 72.2877 69.2504C72.5124 69.3018 72.7435 69.3275 72.9747 69.3275C73.3212 69.3275 73.668 69.2825 74.0018 69.2054L74.7336 69.0129L74.4126 68.3324C74.0082 67.2475 74.0082 66.047 74.4126 64.962C74.6501 64.2558 74.817 63.5241 74.907 62.7793C75.4847 63.0746 76.1267 63.2223 76.7751 63.2158C77.8408 63.2287 78.8358 62.7023 79.4136 61.8099L79.7667 61.1679L79.1247 60.8983C76.9741 60.006 76.4991 57.605 76.4028 56.3081C76.6147 56.3531 76.8264 56.3789 77.0447 56.3852L77.2245 56.5072C79.5612 56.5072 80.3445 54.1254 80.3766 54.0227L80.6397 53.1818H79.7603C77.9114 53.1176 76.1845 52.2445 75.0418 50.7872V50.7872ZM77.2309 55.8589H77.141C76.6724 55.8652 76.2101 55.7368 75.8122 55.4929C75.8122 55.4929 75.4718 60.1344 78.9322 61.5724V61.5916C78.4764 62.285 77.6931 62.6958 76.8649 62.683C75.9277 62.7408 75.0226 62.3427 74.4318 61.6173C74.4512 62.7087 74.2714 63.8 73.9055 64.8272C73.4368 66.0662 73.4368 67.44 73.9055 68.6791C73.6166 68.7497 73.3277 68.7881 73.0324 68.7881C72.8526 68.7881 72.6664 68.7689 72.4931 68.7241C71.6393 68.5185 70.9588 67.8895 70.6828 67.0612C70.6828 67.0612 70.8176 71.5166 65.6239 71.5166H65.5855C65.977 70.7719 66.1826 69.9437 66.1761 69.1027C66.4008 65.8095 68.6349 65.3408 68.6349 65.3408C68.0185 65.2637 67.4343 65.0454 66.9208 64.6989C66.4522 64.3072 66.1826 63.7295 66.1697 63.1196C67.6718 63.1837 69.1228 62.561 70.1049 61.4183C70.6956 60.7443 71.0872 59.9225 71.2541 59.043C70.426 59.6658 69.4053 59.9803 68.3716 59.9354H67.8453C67.2866 59.8776 66.7539 59.6593 66.3237 59.2933C68.301 58.0095 69.6877 55.8139 68.4615 52.482C67.4729 49.8114 65.1039 47.8149 62.7222 46.3127C61.9326 45.8247 61.4576 45.2727 61.4576 44.7976C61.4576 43.6806 63.0432 43.6485 63.6981 42.8717C64.4491 41.9986 63.9805 40.5862 63.3257 39.7388C63.5118 39.7067 63.7045 39.6939 63.8907 39.6939C64.9628 39.681 65.9964 40.1112 66.741 40.8815C67.4985 41.6006 67.7874 42.6855 67.4985 43.687L67.8453 43.7576C68.057 43.7962 68.2689 43.8154 68.4872 43.8218H68.6284C70.5095 43.8218 71.3568 41.8509 71.3568 41.8509C71.3568 41.8509 73.3597 44.3162 70.4131 46.242C69.906 46.5695 69.6812 46.8841 69.7712 47.205L69.8161 47.4168L70.028 47.4554C72.1657 48.0331 73.2378 49.5097 74.5667 51.1852C75.8249 52.7837 77.7253 53.7468 79.7603 53.8173H79.7988C79.7988 53.8173 79.1568 55.8589 77.2309 55.8589V55.8589Z" fill="#222220"/>
<path d="M73.1088 47.2372C73.8279 47.648 74.4506 48.2066 74.9386 48.8741C75.3044 49.4391 75.8244 49.8885 76.4407 50.1582C76.6719 50.2352 76.9222 50.2737 77.1661 50.2737C78.1484 50.2737 79.0471 49.7152 79.4965 48.842L79.8688 48.0076L78.9636 47.9562C77.9879 47.7764 77.1084 47.2757 76.46 46.5245C75.9786 46.0045 75.3044 45.7028 74.5919 45.6964C74.0398 45.7028 73.5069 45.8697 73.0447 46.1651L72.2101 46.7493L73.1088 47.2372V47.2372ZM74.6111 46.3191L74.5919 46.3255C75.1375 46.3255 75.6511 46.5631 76.0171 46.9676C76.7682 47.8278 77.7953 48.3991 78.9252 48.5853C78.5786 49.2337 77.9044 49.6382 77.1661 49.6445C76.9865 49.6445 76.8067 49.6124 76.6334 49.5547C75.5934 49.2016 75.2274 47.6287 73.4234 46.6787C73.7765 46.4476 74.1874 46.3255 74.6111 46.3191V46.3191ZM73.5326 55.5122L73.5199 55.4993C72.9934 51.2622 69.9184 48.2001 66.4966 46.3447C66.182 46.1714 65.8868 46.0303 65.6043 45.8953C67.0166 46.1843 68.4868 45.8376 69.623 44.9517C69.623 44.9517 67.6393 46.409 63.582 45.0865C64.7055 45.8184 66.8882 46.8455 68.8847 48.5147C73.8665 52.893 70.3036 57.1685 70.3036 57.1685C71.793 55.7561 72.313 53.5991 71.6453 51.6603C72.6982 53.413 73.2053 55.4416 73.0961 57.483C72.9549 60.847 71.0868 63.7872 69.1609 66.1305C68.583 66.8687 68.1851 67.7353 68.0182 68.6599C68.3455 67.7418 68.8399 66.8944 69.4818 66.1626C71.5682 63.7166 73.3337 61.1809 73.584 57.528C73.8024 58.1699 74.6882 60.0382 76.1006 60.7378C76.1006 60.7378 74.3287 59.6722 73.5326 55.5122V55.5122ZM46.9549 71.1701C46.6468 70.5152 46.4799 69.7962 46.4734 69.0708C46.4541 67.742 45.9085 66.4772 44.9584 65.5528C45.1509 65.4629 45.3307 65.3474 45.4912 65.2062C46.1011 64.6862 46.4541 63.9285 46.4478 63.1262L46.4092 62.5547H45.8314C44.509 62.6189 43.2251 62.0733 42.3584 61.0654C42.1722 60.8471 42.0053 60.6096 41.8576 60.3593C42.429 60.5325 43.0195 60.616 43.6166 60.616H44.2009C44.9006 60.5454 45.5618 60.2629 46.0947 59.8071L46.6917 59.2614L46.0112 58.8249C44.4833 57.8491 42.9233 56.0002 44.1238 52.7518C44.9006 50.6397 46.6917 48.733 49.6126 46.897C50.5949 46.255 51.1341 45.5424 51.1341 44.8427C51.1341 43.7641 50.229 43.3341 49.5678 43.0323C49.266 42.9167 48.9899 42.7498 48.746 42.538C48.2324 41.9409 48.6626 40.8046 49.144 40.1883L49.786 39.3859L48.7974 39.1933C48.5726 39.1548 48.3416 39.1419 48.1105 39.1419C46.8586 39.1034 45.6517 39.5849 44.7657 40.4644C44.0403 41.177 43.6616 42.1785 43.7322 43.1928H43.347C41.9026 43.1928 41.2221 41.6649 41.1964 41.6007L40.7919 40.6441L40.15 41.4466C39.5529 42.2298 39.2769 43.212 39.386 44.1943C39.6043 45.2793 40.2784 46.2164 41.2413 46.7622C41.3312 46.8199 41.4211 46.8841 41.4981 46.9547C39.4695 47.5968 38.3332 49.0604 37.1391 50.582L36.9658 50.8002C35.8231 52.2575 34.0897 53.1306 32.2408 53.1947H31.3613L31.6309 54.0358C31.6309 54.1385 32.4398 56.5202 34.783 56.5202H34.8986C35.1169 56.5137 35.3287 56.4881 35.5406 56.4431C35.4443 57.7271 34.9692 60.141 32.8122 61.0333L32.1702 61.3029L32.5233 61.9449C33.1011 62.8372 34.0961 63.3637 35.1618 63.3508C35.8102 63.3572 36.4458 63.2095 37.0235 62.9143C37.1134 63.6589 37.2803 64.3908 37.5179 65.097C37.9223 66.182 37.9223 67.3824 37.5179 68.4674L37.1969 69.1479L37.9287 69.3404C38.2626 69.4175 38.6092 69.4624 38.9559 69.4624C39.187 69.4624 39.4181 69.4368 39.6428 69.3854C40.1179 69.2762 40.5544 69.0579 40.9268 68.7433C41.1514 69.4624 41.5366 70.1237 42.0566 70.6693C43.0645 71.7029 44.509 72.2164 46.3899 72.2229H47.5326L46.9549 71.1701V71.1701ZM46.4028 71.5295C41.2092 71.5295 41.3376 67.0743 41.3376 67.0743C41.0616 67.9024 40.3811 68.5316 39.5273 68.737C39.3539 68.782 39.1677 68.8012 38.988 68.8012C38.6927 68.8012 38.4038 68.7627 38.1213 68.692C38.59 67.453 38.59 66.0793 38.1213 64.8402C37.7554 63.813 37.5821 62.7216 37.6013 61.6303C37.0107 62.3558 36.1055 62.7537 35.1682 62.696H35.1361C34.3016 62.7089 33.5184 62.2916 33.0626 61.5982C36.5228 60.1602 36.1826 55.5187 36.1826 55.5187C35.7845 55.7627 35.3223 55.891 34.8537 55.8847H34.783C32.8571 55.8847 32.2152 53.8431 32.2152 53.8431H32.2537C34.2887 53.7789 36.1954 52.816 37.4537 51.2175C38.7761 49.542 39.8547 48.0654 41.9924 47.4876L42.2043 47.4491L42.2492 47.2372C42.307 46.9098 42.0823 46.5952 41.6073 46.2743C38.6606 44.3483 40.6635 41.8831 40.6635 41.8831C40.6635 41.8831 41.4981 43.8541 43.392 43.8541H43.4818C43.7001 43.8476 43.912 43.8283 44.1238 43.7898L44.4705 43.7193C44.1751 42.7177 44.4705 41.6328 45.228 40.9138C45.9726 40.1434 47.0063 39.7133 48.0784 39.7261C48.2645 39.7261 48.4572 39.739 48.6433 39.7711C48.0013 40.6249 47.5263 42.0372 48.2774 42.9039C48.9193 43.655 50.5114 43.6871 50.5114 44.8298C50.5114 45.3049 50.0685 45.857 49.2789 46.3512C46.8907 47.8535 44.5218 49.8501 43.5395 52.5206C42.3134 55.8525 43.7001 58.0674 45.6774 59.332C45.2472 59.6916 44.7144 59.9162 44.1559 59.9741H43.623C42.5895 60.0189 41.5687 59.7044 40.7406 59.0816C40.9075 59.9612 41.2991 60.7829 41.8833 61.457C42.8655 62.5933 44.3228 63.2224 45.8251 63.1582C45.8122 63.7681 45.5426 64.3458 45.0739 64.7375C44.5603 65.0841 43.9761 65.3024 43.3599 65.3795C43.3599 65.3795 45.6003 65.8352 45.8443 69.1414C45.8378 69.9824 46.0433 70.8106 46.4349 71.5552L46.4028 71.5295V71.5295Z" fill="#222220"/>
<path d="M34.8276 50.2671H34.834C35.0779 50.2671 35.3283 50.2286 35.5594 50.1517C36.1757 49.8819 36.6957 49.4327 37.0616 48.8677C37.5431 48.2 38.1658 47.6415 38.8849 47.2306L39.7836 46.7492L38.9491 46.165C38.4868 45.8696 37.954 45.7027 37.4083 45.6963C36.6957 45.7027 36.0216 46.0044 35.5402 46.5309C34.8982 47.2756 34.0123 47.7827 33.0429 47.9625L32.1377 48.0075L32.5036 48.8419C32.953 49.7151 33.8453 50.2608 34.8276 50.2671V50.2671ZM35.9831 46.9675C36.3426 46.563 36.8562 46.3254 37.4019 46.3254C37.8192 46.3319 38.23 46.4603 38.5831 46.685C36.7663 47.6544 36.3876 49.2079 35.3733 49.561C35.2063 49.6188 35.0266 49.6509 34.8468 49.6509C34.1021 49.6509 33.4216 49.24 33.075 48.5852C34.2049 48.399 35.232 47.8277 35.9831 46.9675ZM38.917 57.5086C38.8079 55.4671 39.3086 53.4385 40.3679 51.6859C39.7002 53.6246 40.2202 55.7817 41.7096 57.1941C41.7096 57.1941 38.1402 52.9185 43.1284 48.5402C45.1249 46.8711 47.3012 45.844 48.4247 45.1121C44.3674 46.4346 42.3837 44.9773 42.3837 44.9773C43.5199 45.8632 44.9837 46.2098 46.396 45.921C46.1136 46.0558 45.8182 46.2035 45.5037 46.3704C42.082 48.2321 38.9876 51.2944 38.4805 55.5313V55.4992C37.6844 59.6592 35.9126 60.725 35.9126 60.725C37.3185 60.0316 38.2108 58.1571 38.4227 57.515C38.6602 61.1744 40.4449 63.7102 42.5313 66.1496C43.1668 66.8815 43.6676 67.7289 43.9951 68.6469C43.8217 67.7289 43.4237 66.8623 42.8395 66.1304C40.9136 63.7871 39.0518 60.8469 38.917 57.5086ZM54.8251 49.7792C55.0498 49.561 55.3644 49.4583 55.679 49.4968V50.71C55.6726 51.0118 55.5955 51.3008 55.4478 51.5639H56.6611C56.5136 51.3008 56.4365 51.0118 56.4301 50.71V49.4968C56.7382 49.4583 57.0528 49.561 57.2774 49.7792V48.9383H54.8251V49.7792V49.7792ZM54.318 43.9565H54.3051C54.4913 44.1171 54.7095 44.2454 54.9472 44.3225L55.1012 44.3931V43.5971L53.676 43C53.7466 43.3981 53.9778 43.7446 54.318 43.9565ZM57.7012 43.9502L57.6947 43.9565C58.0351 43.7446 58.2661 43.3981 58.3368 43L56.9116 43.5971V44.3867L57.0592 44.316C57.2968 44.239 57.5151 44.1106 57.7012 43.9502V43.9502Z" fill="#222220"/>
<path d="M60.2567 40.7339C60.2567 39.5334 58.2344 38.4548 56.0068 38.4548C53.7791 38.4548 51.7569 39.5334 51.7569 40.7339L51.8018 41.0292L52.6942 46.1649L51.8018 46.6849L49.4715 48.0074C49.4715 48.0074 48.9515 48.277 48.7075 48.4376C47.8281 49.0795 47.6418 49.9397 48.149 50.3122C48.2774 49.439 49.0414 48.797 49.9273 48.8228C50.6656 48.842 51.3525 49.2143 51.7698 49.8242C51.8981 49.9783 52.0137 50.1453 52.1164 50.3122C52.2512 50.5305 52.386 50.723 52.5208 50.9091H46.5762C47.0769 51.7694 47.3658 52.7388 47.43 53.7338V66.9393C47.43 70.1491 49.8887 71.6578 52.5658 71.6578C54.6202 71.6578 54.8962 71.5615 56.026 72.6914C57.156 71.5615 57.432 71.6578 59.4863 71.6578C62.1441 71.6578 64.6221 70.1363 64.6221 66.9393V53.7467C64.6863 52.7516 64.9752 51.7822 65.476 50.922H59.467C59.6018 50.7359 59.7367 50.5432 59.8715 50.3249C59.9806 50.158 60.0962 49.9911 60.2181 49.837C60.6418 49.2272 61.3287 48.8549 62.067 48.8355C62.9529 48.8099 63.7169 49.4518 63.8452 50.3249C64.3589 49.959 64.1727 49.041 63.2868 48.4505C63.0493 48.2835 62.5293 48.0203 62.5293 48.0203L60.2181 46.6593L59.3258 46.1393L60.2181 41.0035L60.2567 40.7339V40.7339ZM52.6171 41.3245L55.75 42.3837V47.3013L53.4452 46.0815L52.6171 41.3245ZM47.8601 51.7759H53.2591C53.6764 52.2124 54.19 52.559 54.755 52.7772C54.6329 53.201 54.665 53.6568 54.8385 54.0613C55.0439 54.4914 55.4098 54.8253 55.8591 54.9986C55.9425 55.7368 56.4433 56.3532 57.1431 56.597C56.7579 56.9887 56.3791 57.3545 56.225 57.5022L52.6364 57.4445C52.5144 57.3867 52.4181 57.2968 52.3539 57.1813V57.1363L52.9381 57.2326H52.9767C53.0922 57.2326 53.1885 57.1555 53.2077 57.0401C53.227 56.9116 53.1435 56.7961 53.0152 56.7705L52.2962 56.6549L53.0922 53.8943L52.3347 52.3022L51.1214 53.5862L51.0443 56.4559L50.229 56.3274C50.1006 56.3018 49.985 56.3853 49.9594 56.5136V56.5201C49.9401 56.6484 50.0235 56.764 50.152 56.7897L50.4922 56.841C50.3702 56.9116 50.2868 56.963 50.2804 56.9759L50.2098 57.0272V57.1107C50.0493 57.8424 50.3446 58.6001 50.9481 59.0366V59.1393C50.9095 59.3897 51.0829 59.6272 51.3333 59.6721H51.4102C51.6221 59.6721 51.8083 59.5245 51.8533 59.3126C52.0073 59.319 52.155 59.319 52.309 59.3126H52.4052L57.111 60.1664L57.1881 60.1151C57.5604 59.8518 58.992 58.8311 59.4606 58.4653C59.5954 58.5807 59.7495 58.6835 59.91 58.7605C59.6917 59.4345 59.8587 60.1728 60.3466 60.6864H48.2902V53.7467C48.2646 53.0726 48.1169 52.4049 47.8601 51.7759V51.7759ZM59.0562 58.1249C58.5683 58.4845 57.3677 59.3576 56.9312 59.6657L52.6621 58.921V58.8055C52.7327 58.5166 52.7712 58.2213 52.7777 57.9259L56.3727 57.9837L56.4433 57.9132C56.5012 57.8553 57.6374 56.7576 58.2152 56.122C58.3693 56.3145 58.549 56.4751 58.7544 56.6035C58.6517 57.1299 58.7608 57.6755 59.0562 58.1249V58.1249ZM51.9239 57.3545V57.3738C52.0202 57.5536 52.1614 57.7076 52.3347 57.8105C52.3283 58.0736 52.3025 58.3305 52.2577 58.5872C52.2577 58.6449 52.2577 58.7028 52.2127 58.7605V58.8505C51.9174 58.8505 51.6285 58.8055 51.346 58.7155C50.8325 58.4395 50.5435 57.8745 50.627 57.2968C50.8581 57.1363 51.1214 57.0336 51.3974 56.9951C51.635 56.9887 51.8468 57.1299 51.9239 57.3545V57.3545ZM51.4808 56.5007L51.5515 53.7853L52.1935 53.1432L52.585 53.9586L51.8212 56.6035L51.4808 56.5007V56.5007ZM59.0241 70.804H58.4077L58.8893 69.2311C58.9663 69.0128 58.5683 68.7303 58.4014 68.4801C58.7929 68.7176 59.1974 68.9294 59.6147 69.122C59.6147 69.1734 59.0241 70.804 59.0241 70.804ZM60.6739 69.0449L60.6225 69.0001L60.2887 70.7334C60.0769 70.7334 59.8522 70.7783 59.6468 70.7911L59.9998 69.122C60.1025 68.6276 58.7737 68.4801 58.1189 67.4978C57.6887 67.8572 57.1367 68.0242 56.5846 67.9664C56.0967 67.9601 55.6152 67.9086 55.1401 67.8124C55.0567 67.8059 54.9733 67.8059 54.8898 67.8124C54.6908 67.7995 54.4981 67.9022 54.3954 68.0755L54.2991 68.2361L52.4695 67.7932L52.0329 68.5507C51.9623 68.6534 51.9752 68.7945 52.065 68.8845L52.187 69.0193C52.065 69.2568 51.911 69.4751 51.7248 69.6613L51.4552 69.3274C51.2498 68.9936 51.269 68.5635 51.5002 68.2489L52.2191 67.0355L53.7535 67.2667L53.516 66.721C53.195 66.002 53.6829 65.084 53.7342 64.5576C53.7342 64.718 53.5673 64.7501 53.4004 64.7501H52.9574C52.9252 64.7437 52.8868 64.7437 52.8547 64.7501L52.4374 65.0005L52.11 64.6988C52.0587 64.6024 52.0779 64.487 52.155 64.4163L52.9125 63.5624L52.0137 62.5161L53.2977 63.158L53.6829 62.6959C53.7856 62.7986 53.7406 63.0682 53.7406 63.0682C54.6715 63.2993 55.3198 64.1467 55.2942 65.1097V65.2959C55.4225 65.5013 55.6281 65.6424 55.8591 65.7003L57.5989 65.8736C57.9456 65.7645 58.2987 65.6938 58.6581 65.6489C58.9663 65.6489 59.2744 65.7453 59.5312 65.9121C59.6533 65.8287 59.8008 65.7772 59.9485 65.7709H60.0063C60.7831 65.7709 61.1104 66.477 61.5277 67.0549C61.8423 67.4978 62.266 68.1655 62.266 68.1655C62.1441 68.3453 61.945 68.4543 61.7268 68.4543C61.6498 68.4607 61.5791 68.4607 61.5021 68.4543C60.6675 68.3003 60.5456 66.5797 60.0704 66.4449H59.9935C59.9035 66.4449 59.8202 66.4963 59.7752 66.5797C59.9935 67.164 59.865 67.4015 60.1025 67.8637C60.276 68.1397 60.4942 68.3901 60.7446 68.602C60.7446 68.602 60.7125 68.8588 60.6739 69.0449V69.0449ZM51.3204 67.363H51.3075L51.3846 67.562C51.3333 67.7353 50.7425 67.9857 50.7425 67.9857L50.6142 67.7032C50.4473 67.2988 50.5693 66.8366 50.9223 66.5734L51.8917 65.9828L52.9252 66.201C52.9189 66.4064 52.9831 66.6055 53.105 66.7724L52.0201 66.567L51.3781 67.0163C51.2754 67.1062 51.2562 67.2474 51.3204 67.363V67.363ZM63.7362 66.9457C63.8068 68.7305 62.5677 70.2968 60.8152 70.6435L61.1104 69.0899C61.1104 69.0001 61.1425 68.8909 61.1554 68.801C61.2452 68.8395 61.3352 68.8653 61.425 68.8845C61.5277 68.8909 61.6304 68.8909 61.7333 68.8845C62.0863 68.8845 62.4202 68.724 62.632 68.4415L62.8631 68.1718L62.6704 67.9087C62.6704 67.9087 62.2404 67.2282 61.9194 66.7788L61.7396 66.5091C61.3801 65.9699 60.9243 65.2894 60.0191 65.2894H59.9356C59.8073 65.2959 59.6725 65.3215 59.5504 65.3664C59.2744 65.2316 58.9727 65.161 58.6646 65.161C58.3564 65.1674 58.0483 65.2253 57.7594 65.3343L57.6052 65.3793L55.9104 65.2124C55.8398 65.1803 55.7821 65.1289 55.7371 65.0647L56.1031 64.917C56.0004 63.6909 54.8191 62.9397 54.1771 62.6894C54.145 62.5545 54.0808 62.439 53.9846 62.3428L53.6187 61.9961L53.2977 62.3813L53.1371 62.5738L50.7618 61.598L52.309 63.524L51.6991 64.4484C51.5708 64.5768 51.5643 64.7887 51.6991 64.9235L52.3412 65.3601L52.9831 65.1161H53.0473C53.0473 65.2124 52.9767 65.604 52.9446 65.7132L51.8275 65.5205L50.6335 66.1624C50.0814 66.5605 49.8887 67.2924 50.1777 67.9087L50.3125 68.1976L50.4987 68.6084L50.916 68.4351C50.7618 68.8524 50.826 69.3145 51.0956 69.6676L51.346 69.9887L51.6798 70.4124L52.0522 70.0143C52.2962 69.7705 52.4887 69.488 52.6235 69.1734L52.7006 68.9166L52.5208 68.7176V68.679L52.7263 68.3453L54.2093 68.6918L54.5431 68.7689L54.7229 68.4736L54.8191 68.3132C54.8191 68.281 54.8191 68.2745 54.909 68.2745H55.0695C55.5767 68.3772 56.0902 68.4287 56.6039 68.4351C56.9504 68.4543 57.2971 68.4159 57.631 68.3132L58.4527 69.2505L57.9648 70.7526V70.8424C57.2329 70.8297 56.5333 71.1314 56.0389 71.6642C55.2493 70.881 54.6908 70.7976 52.5787 70.7976C50.0429 70.7976 48.3287 69.3145 48.3287 66.9457V61.168H63.7362V66.9457V66.9457ZM64.1535 51.7759C63.8902 52.3986 63.749 53.0662 63.7233 53.7467V58.0736C63.1648 57.9516 62.7475 57.4766 62.709 56.9053V56.7062H62.5164C62.1825 56.6805 61.8744 56.5264 61.6433 56.2889C61.3608 55.9615 61.2068 55.5507 61.2004 55.1205C60.9243 55.5699 60.95 56.1476 61.271 56.5714C61.5214 56.8859 61.8873 57.0978 62.2852 57.1491C62.4008 57.8938 62.9979 58.4716 63.7425 58.568V60.6864H61.0463C60.3402 60.327 60.0448 59.4859 60.3594 58.7605L60.4621 58.5294L60.2246 58.4395C59.4542 58.1699 59.0304 57.3418 59.2744 56.5586L59.3258 56.3659L59.146 56.2824C58.472 55.8909 58.0996 55.127 58.2087 54.3566C57.8556 54.7161 57.7658 55.2618 57.9904 55.7111C57.8621 55.8588 57.6952 56.0321 57.509 56.2247C56.835 56.0835 56.347 55.4993 56.3214 54.8124V54.6518L56.1737 54.5941C55.7821 54.4786 55.4612 54.2089 55.275 53.8494C55.1529 53.5541 55.1273 53.2203 55.2108 52.9121C55.3391 52.9378 55.4675 52.957 55.596 52.9699C55.7243 52.9763 55.8591 52.9763 55.9875 52.9699C57.0275 52.9699 58.0162 52.5205 58.7095 51.7501L64.1535 51.7759V51.7759ZM59.9935 47.3976L61.0463 48.0395L61.3095 48.1936C60.7639 48.3413 60.2695 48.6366 59.8779 49.0474L59.8329 49.0859C59.7431 49.1822 59.6596 49.2786 59.5762 49.3813L59.5248 49.4455C59.4414 49.5482 59.3643 49.6572 59.2937 49.7728L59.2552 49.8307C59.1652 49.959 59.0818 50.1003 58.9985 50.2415C58.4142 51.4035 57.2779 52.1803 55.9875 52.3087C54.6971 52.1803 53.5608 51.4035 52.9767 50.2415C52.8933 50.1003 52.8098 49.9655 52.7263 49.8307L52.675 49.7601L52.4695 49.4262L52.4117 49.3555C52.3283 49.2528 52.2448 49.1566 52.1614 49.0667L52.1164 49.0218C51.7248 48.6109 51.2304 48.3155 50.6848 48.168L50.9544 48.0138L52.0137 47.3718L53.0987 46.7299L55.9939 48.3028L58.8893 46.7813L59.9935 47.3976V47.3976ZM58.5683 46.1136L56.2635 47.327V42.3901L59.39 41.3309L58.5683 46.1136V46.1136ZM56.0004 41.8701L52.5722 40.4963C52.8612 39.803 54.2093 39.2124 56.0004 39.2124C57.7915 39.2124 59.1396 39.803 59.4285 40.4963L56.0004 41.8701Z" fill="#222220"/>
</g>
<defs>
<filter id="filter0_b_1094_80" x="-22" y="-22" width="156" height="156" filterUnits="userSpaceOnUse" color-interpolation-filters="sRGB">
<feFlood flood-opacity="0" result="BackgroundImageFix"/>
<feGaussianBlur in="BackgroundImage" stdDeviation="11"/>
<feComposite in2="SourceAlpha" operator="in" result="effect1_backgroundBlur_1094_80"/>
<feBlend mode="normal" in="SourceGraphic" in2="effect1_backgroundBlur_1094_80" result="shape"/>
</filter>
</defs>
</svg>
