<svg width="112" height="112" viewBox="0 0 112 112" fill="none" xmlns="http://www.w3.org/2000/svg">
<g filter="url(#filter0_b_1094_75)">
<path d="M0 15C0 6.71573 6.71573 0 15 0H97C105.284 0 112 6.71573 112 15V97C112 105.284 105.284 112 97 112H15C6.71573 112 0 105.284 0 97V15Z" fill="#2B273D"/>
<path d="M70.6868 64.6392C70.8321 65.6149 70.5253 66.0186 70.2151 66.0186C69.8791 66.0186 69.4528 65.6245 68.9553 64.8427C68.4609 64.0739 68.2833 63.192 68.5255 62.7429C68.687 62.449 69.0263 62.3197 69.4528 62.4812C70.2765 62.7946 70.5995 64.0577 70.6868 64.6392ZM66.122 66.7649C67.1106 67.6016 67.411 68.5966 66.8876 69.2976C66.5969 69.682 66.1253 69.8952 65.5599 69.8952C65.0043 69.8952 64.439 69.6885 64.048 69.3461C63.15 68.5611 62.8851 67.285 63.473 66.5614C63.7024 66.2771 64.0739 66.122 64.523 66.122C65.0656 66.122 65.6343 66.3514 66.122 66.7649ZM64.468 74.838C68.729 74.838 73.3519 76.2981 78.469 80.8338C78.9826 81.2893 79.6643 80.7239 79.2185 80.1586C74.1886 73.8074 69.5366 72.5992 64.8976 71.5784C59.2249 70.3281 56.3045 67.1364 54.2694 63.6281C53.8655 62.9303 53.6846 63.053 53.6459 63.9511C53.6006 65.0463 53.6781 66.5 53.9236 67.9246C53.6943 67.9344 53.4649 67.9311 53.2324 67.9311C45.1141 67.9311 38.5335 61.3506 38.5335 53.2324C38.5335 45.1141 45.1141 38.5335 53.2324 38.5335C61.3506 38.5335 67.9311 45.1141 67.9311 53.2324C67.9311 53.8106 67.902 54.3824 67.8374 54.9412C66.7649 54.7474 64.6521 54.7249 63.1694 54.854C62.6105 54.9025 62.6913 55.161 63.1113 55.2385C67.9699 56.1171 71.307 59.128 72.0726 64.5908C72.0888 64.7168 72.2535 64.7555 72.3181 64.6457C74.3179 61.3086 75.4646 57.4061 75.4646 53.2324C75.4711 40.9564 65.5148 31 53.2355 31C40.9564 31 31 40.9564 31 53.2355C31 65.5148 40.9564 75.4711 53.2355 75.4711C56.4919 75.4711 59.7256 74.838 64.468 74.838V74.838Z" fill="#FF8C00"/>
</g>
<defs>
<filter id="filter0_b_1094_75" x="-22" y="-22" width="156" height="156" filterUnits="userSpaceOnUse" color-interpolation-filters="sRGB">
<feFlood flood-opacity="0" result="BackgroundImageFix"/>
<feGaussianBlur in="BackgroundImage" stdDeviation="11"/>
<feComposite in2="SourceAlpha" operator="in" result="effect1_backgroundBlur_1094_75"/>
<feBlend mode="normal" in="SourceGraphic" in2="effect1_backgroundBlur_1094_75" result="shape"/>
</filter>
</defs>
</svg>
