<svg width="40" height="40" viewBox="0 0 40 40" fill="none" xmlns="http://www.w3.org/2000/svg">
<path fill-rule="evenodd" clip-rule="evenodd" d="M40 20C40 31.0457 31.0457 40 20 40C8.9543 40 0 31.0457 0 20C0 8.9543 8.9543 0 20 0C31.0457 0 40 8.9543 40 20ZM16.9609 16.5785V13.4222C16.9609 13.4105 16.9609 13.3975 16.9608 13.3832C16.9583 12.6896 16.9447 8.98457 21.8359 8.97691H25.3516V12.9925H22.7656C22.25 12.9925 21.7344 13.5238 21.7344 13.9144V16.555H25.3438C25.1953 18.5785 24.8984 20.43 24.8984 20.43H21.7109V31.016H16.9609V20.4379H14.6484V16.5785H16.9609Z" fill="white"/>
</svg>
