<svg width="40" height="40" viewBox="0 0 40 40" fill="none" xmlns="http://www.w3.org/2000/svg">
<path fill-rule="evenodd" clip-rule="evenodd" d="M40 20C40 31.0457 31.0457 40 20 40C8.9543 40 0 31.0457 0 20C0 8.9543 8.9543 0 20 0C31.0457 0 40 8.9543 40 20ZM24.2226 11.5698C23.1288 11.5201 22.7985 11.5095 20.0252 11.5095C17.2516 11.5095 16.9231 11.5201 15.8275 11.5698C14.8156 11.6158 14.2651 11.7855 13.8993 11.9276C13.4146 12.1159 13.0682 12.3414 12.7042 12.7044C12.3403 13.0686 12.1165 13.4139 11.9282 13.8995C11.7862 14.2655 11.6157 14.8157 11.5696 15.8287C11.52 16.9235 11.5094 17.252 11.5094 20.0264C11.5094 22.7989 11.52 23.1293 11.5696 24.223C11.6157 25.2352 11.7862 25.7857 11.9282 26.1512C12.1165 26.6378 12.3403 26.9823 12.7042 27.3481C13.0684 27.7103 13.4146 27.9356 13.8993 28.1239C14.2651 28.2662 14.8156 28.4346 15.8275 28.4809C16.9231 28.5305 17.2516 28.5412 20.0252 28.5412C22.7985 28.5412 23.1288 28.5305 24.2226 28.4809C25.2348 28.4346 25.7853 28.2662 26.1508 28.1239C26.6374 27.934 26.9819 27.7103 27.3477 27.3481C27.7098 26.9823 27.9352 26.6378 28.1235 26.1512C28.2658 25.7857 28.4342 25.2352 28.4805 24.223C28.5301 23.1293 28.5407 22.7989 28.5407 20.0264C28.5407 17.2518 28.5301 16.9235 28.4805 15.8287C28.4342 14.8157 28.2658 14.2653 28.1235 13.8995C27.9352 13.4137 27.7098 13.0683 27.3477 12.7044C26.9819 12.3414 26.6374 12.1159 26.1508 11.9276C25.7853 11.7855 25.2348 11.6158 24.2226 11.5698ZM15.7424 9.70005C16.8504 9.6496 17.2055 9.63796 20.0252 9.63796C22.8464 9.63796 23.2 9.6496 24.3079 9.70005C25.414 9.75075 26.1686 9.92639 26.829 10.183C27.5125 10.4484 28.0932 10.8036 28.6685 11.3815C29.2475 11.9586 29.6026 12.5383 29.8691 13.221C30.1246 13.8824 30.3003 14.637 30.3518 15.7431C30.4014 16.8511 30.412 17.2044 30.412 20.0259C30.412 22.8481 30.4014 23.1999 30.3518 24.3078C30.3003 25.4158 30.1246 26.1685 29.8691 26.8289C29.6024 27.5142 29.2472 28.0934 28.6685 28.6702C28.0935 29.2474 27.5127 29.6025 26.829 29.869C26.1686 30.1245 25.414 30.3004 24.3079 30.3517C23.1997 30.4013 22.8464 30.4137 20.0252 30.4137C17.2055 30.4137 16.8504 30.4013 15.7424 30.3517C14.6381 30.3004 13.8815 30.1245 13.2211 29.869C12.5392 29.6025 11.9584 29.2471 11.3816 28.6702C10.8029 28.0934 10.4477 27.5142 10.1831 26.8289C9.92572 26.1685 9.75162 25.4139 9.70015 24.3078C9.64893 23.1999 9.63806 22.8481 9.63806 20.0259C9.63806 17.2044 9.64867 16.8511 9.70015 15.7431C9.75162 14.637 9.92572 13.8824 10.1831 13.221C10.4477 12.5383 10.8026 11.9583 11.3816 11.3815C11.9587 10.8036 12.5392 10.4484 13.2211 10.183C13.8815 9.92639 14.6379 9.75075 15.7424 9.70005ZM14.6912 20.0261C14.6912 17.0795 17.0793 14.6913 20.0252 14.6913C22.9726 14.6913 25.3589 17.0797 25.3589 20.0261C25.3589 22.9725 22.9726 25.3591 20.0252 25.3591C17.0793 25.3591 14.6912 22.9728 14.6912 20.0261ZM16.5627 20.0261C16.5627 21.9393 18.1127 23.4875 20.0252 23.4875C21.9392 23.4875 23.4874 21.9393 23.4874 20.0261C23.4874 18.1129 21.9389 16.5629 20.0252 16.5629C18.1127 16.5629 16.5627 18.1129 16.5627 20.0261ZM25.5703 13.2347C26.2592 13.2347 26.8166 13.7921 26.8166 14.481C26.8166 15.1691 26.2592 15.7273 25.5703 15.7273C24.8832 15.7273 24.324 15.1691 24.324 14.481C24.324 13.7921 24.8832 13.2347 25.5703 13.2347Z" fill="white"/>
</svg>
