<svg width="40" height="40" viewBox="0 0 40 40" fill="none" xmlns="http://www.w3.org/2000/svg">
<path fill-rule="evenodd" clip-rule="evenodd" d="M40 20V20.0591C39.9883 24.0097 38.8069 27.8683 36.6048 31.1483C34.4027 34.4282 31.2785 36.9825 27.6264 38.4889C23.9743 39.9953 19.9578 40.3864 16.0837 39.6128C12.2096 38.8392 8.65138 36.9356 5.85788 34.1421C3.06439 31.3486 1.16078 27.7904 0.387196 23.9163C-0.386393 20.0422 0.00469254 16.0257 1.51112 12.3736C3.01754 8.72151 5.57183 5.59734 8.85175 3.39523C12.1317 1.19311 15.9903 0.0116895 19.9409 0H20C20.4818 0 20.9591 0 21.4363 0.0545455C22.2175 0.109228 22.9947 0.210928 23.7636 0.359092C25.023 0.597691 26.2561 0.958488 27.4454 1.43637C29.9413 2.44009 32.2098 3.93561 34.116 5.83394C36.0221 7.73227 37.5269 9.99462 38.5409 12.4864C39.0326 13.6951 39.4026 14.9498 39.6455 16.2318C39.7933 17.0085 39.895 17.7932 39.95 18.5819C40 19.0546 40 19.5455 40 20ZM19.941 19.4002C19.1067 19.4002 18.2911 19.1528 17.5975 18.6893C16.9038 18.2258 16.3631 17.567 16.0439 16.7962C15.7246 16.0255 15.6411 15.1773 15.8038 14.3591C15.9666 13.5408 16.3683 12.7892 16.9583 12.1993C17.5482 11.6094 18.2998 11.2076 19.118 11.0449C19.9363 10.8821 20.7844 10.9656 21.5552 11.2849C22.326 11.6042 22.9848 12.1448 23.4483 12.8385C23.9118 13.5322 24.1592 14.3477 24.1592 15.182C24.1579 16.3004 23.7131 17.3726 22.9223 18.1634C22.1315 18.9542 21.0593 19.399 19.941 19.4002ZM19.941 13.0093C19.5112 13.0093 19.0912 13.1367 18.7339 13.3754C18.3766 13.6142 18.0981 13.9535 17.9336 14.3505C17.7692 14.7475 17.7261 15.1844 17.81 15.6059C17.8938 16.0273 18.1007 16.4145 18.4046 16.7183C18.7085 17.0222 19.0956 17.2291 19.5171 17.313C19.9386 17.3968 20.3754 17.3538 20.7724 17.1893C21.1694 17.0249 21.5088 16.7464 21.7475 16.3891C21.9863 16.0318 22.1137 15.6117 22.1137 15.182C22.1125 14.6061 21.8832 14.0542 21.476 13.647C21.0688 13.2398 20.5168 13.0105 19.941 13.0093ZM25.3877 20.1048C25.5124 20.2001 25.6169 20.319 25.6955 20.4547C25.7762 20.5902 25.8287 20.7405 25.8498 20.8967C25.8709 21.053 25.8602 21.2119 25.8182 21.3638C25.7404 21.663 25.5498 21.9204 25.2864 22.082C24.4625 22.5758 23.5818 22.968 22.6637 23.2502C22.3525 23.3353 22.0485 23.4447 21.7546 23.5775L21.6318 23.6366L24.5046 27.1275C24.7086 27.3674 24.8097 27.6782 24.7858 27.9923C24.762 28.3064 24.6152 28.5983 24.3773 28.8048C24.1447 28.9865 23.8504 29.0706 23.5569 29.0392C23.2633 29.0078 22.9935 28.8634 22.8046 28.6366L19.9409 25.182L17.0818 28.6366C16.9792 28.7671 16.8492 28.8736 16.701 28.9484C16.5529 29.0233 16.3901 29.0648 16.2241 29.07C16.0581 29.0752 15.8931 29.044 15.7405 28.9785C15.5879 28.9131 15.4515 28.815 15.3409 28.6911C15.1483 28.4754 15.0418 28.1963 15.0418 27.907C15.0418 27.6178 15.1483 27.3387 15.3409 27.1229L18.1909 23.6775L17.8 23.482C17.4883 23.3316 17.1681 23.1995 16.8409 23.0866C16.1085 22.8248 15.3999 22.5009 14.7227 22.1184C14.4655 21.9548 14.2805 21.6992 14.2055 21.4038C14.1305 21.1084 14.1711 20.7955 14.3191 20.529C14.4672 20.2626 14.7114 20.0627 15.0018 19.9703C15.2923 19.878 15.6071 19.9 15.8818 20.032C17.1154 20.7902 18.5255 21.2132 19.9727 21.2593C21.425 21.2368 22.842 20.8085 24.0637 20.0229C24.1991 19.9438 24.3488 19.8922 24.5042 19.871C24.6596 19.8499 24.8177 19.8597 24.9693 19.8998C25.1209 19.9399 25.2631 20.0096 25.3877 20.1048Z" fill="white"/>
</svg>
