<svg width="40" height="40" viewBox="0 0 40 40" fill="none" xmlns="http://www.w3.org/2000/svg">
<path d="M20 0C8.95407 0 0 8.95407 0 20C0 31.0459 8.95407 40 20 40C31.0459 40 40 31.0459 40 20C40 8.95407 31.0459 0 20 0ZM30.7487 27.5897C29.8951 28.1235 26.4268 28.2825 25.5871 27.6724C25.1265 27.338 24.7054 26.9194 24.3055 26.5208C24.0256 26.2422 23.708 26.107 23.4675 25.8046C23.2712 25.5572 23.1365 25.2652 22.9298 25.0208C22.581 24.6109 22.0442 24.2621 21.6196 24.763C20.9801 25.5165 21.7201 26.9961 20.8674 27.5589C20.5815 27.7478 20.2929 27.8024 19.9354 27.7756L19.1438 27.8115C18.6789 27.8206 17.9424 27.825 17.4133 27.7296C16.8232 27.623 16.3358 27.3007 15.802 27.0641C14.789 26.6148 13.8241 26.0026 13.0897 25.1547C11.091 22.8453 8.40641 19.6694 7.36352 16.766C7.14905 16.1694 6.58232 14.9879 7.11958 14.4762C7.85009 13.9454 11.4354 13.7959 11.9948 14.6166C12.2218 14.9502 12.3653 15.438 12.526 15.8163C12.7262 16.2877 12.8345 16.7318 13.1473 17.149C13.4242 17.5191 13.6282 17.8912 13.8423 18.2968C14.0828 18.7522 14.3098 19.1889 14.6023 19.6079C14.8007 19.893 15.3254 20.4601 15.6568 20.5022C16.4662 20.6057 16.4159 18.6391 16.3557 18.159C16.2981 17.6963 16.2834 17.2054 16.2985 16.7361C16.3115 16.3358 16.3475 15.7717 16.1105 15.445C15.724 14.912 14.8631 15.3107 14.7959 14.5945C14.938 14.3912 14.9081 14.211 15.8574 13.8982C16.6053 13.6525 17.0884 13.6603 17.5815 13.6997C18.5867 13.7803 19.6525 13.5082 20.623 13.8341C21.5503 14.1464 21.4068 15.464 21.3756 16.2535C21.3336 17.331 21.3787 18.383 21.3756 19.477C21.3743 19.9749 21.3544 20.4597 21.9619 20.419C22.5312 20.3813 22.5893 19.9021 22.8609 19.5069C23.2387 18.9558 23.5858 18.3969 23.9705 17.8479C24.4892 17.1057 24.646 16.2717 25.1343 15.5113C25.3089 15.2396 25.4593 14.6607 25.7283 14.4458C25.932 14.2825 26.3189 14.3678 26.5654 14.3678H27.1516C27.6001 14.3678 28.0576 14.3644 28.5186 14.3804C29.1824 14.4034 29.9259 14.2509 30.5841 14.344C33.4242 14.7448 27.0143 20.8163 27.3479 21.9003C27.5784 22.649 29.0407 23.4857 29.5685 24.0988C30.2691 24.9155 32.4259 26.539 30.7487 27.5897Z" fill="white"/>
</svg>
