<svg width="100" height="97" viewBox="0 0 100 97" fill="none" xmlns="http://www.w3.org/2000/svg">
<path d="M79.1895 25.4457L79.3372 25.6003H79.551H93.227C93.8694 25.6003 94.371 26.1085 94.3709 26.6952C94.3709 27.2821 93.8692 27.7903 93.2268 27.7903H82.2805H81.2693L81.8832 28.5939C82.4063 29.2786 82.9062 29.9802 83.3802 30.6992L83.5284 30.9239H83.7977H87.3068C89.0235 30.9239 90.4037 32.2845 90.4037 33.9131C90.4037 35.5154 89.0667 36.8559 87.3868 36.8979L86.6757 36.9156L86.9331 37.5787C88.5108 41.6416 89.3762 46.0426 89.3762 50.6412C89.3762 71.1075 72.2676 87.7244 51.1307 87.7244C39.7827 87.7244 29.5945 82.9317 22.5915 75.3248L22.4429 75.1634H22.2236H6.52676C4.8101 75.1634 3.42969 73.803 3.42969 72.1743C3.42969 70.5455 4.8101 69.1851 6.52676 69.1851H17.1357H17.9928L17.571 68.4391C17.1714 67.7323 16.7959 67.0105 16.4429 66.2755L16.3067 65.992H15.9922H12.282C11.6395 65.992 11.1377 65.4838 11.1377 64.8968C11.1377 64.31 11.6394 63.8018 12.282 63.8018H14.641H15.3583L15.1101 63.1288C13.6711 59.2269 12.885 55.0236 12.885 50.6412C12.885 30.175 29.9935 13.5581 51.1307 13.5581C62.2218 13.5581 72.205 18.1366 79.1895 25.4457Z" fill="#656DB3" stroke="white"/>
<path d="M93.227 25.1002H71.0068C65.4789 21.0463 58.5945 18.6406 51.1307 18.6406C32.9104 18.6406 18.1402 32.9678 18.1402 50.6413C18.1402 55.139 19.0984 59.4187 20.825 63.3019H12.282C11.3777 63.3019 10.6377 64.0198 10.6377 64.8969C10.6377 65.7743 11.3777 66.4921 12.282 66.4921H22.4662C22.9086 67.2429 23.3816 67.974 23.8832 68.6852H6.52676C4.54844 68.6852 2.92969 70.2552 2.92969 72.1744C2.92969 74.0936 4.54844 75.6636 6.52676 75.6636H30.5668C36.2064 80.0303 43.3535 82.6419 51.1307 82.6419C69.3504 82.6419 84.1209 68.3149 84.1209 50.6413C84.1209 45.9194 83.0658 41.4371 81.1732 37.4024H87.3068C89.2852 37.4024 90.9037 35.8322 90.9037 33.9132C90.9037 31.9942 89.2852 30.424 87.3068 30.424H76.702C76.0797 29.6844 75.4236 28.9728 74.7369 28.2904H93.2268C94.1309 28.2904 94.8709 27.5726 94.8709 26.6954C94.8711 25.8181 94.1311 25.1002 93.227 25.1002Z" fill="#353B71"/>
<path d="M31.2846 48.8581C42.2605 48.8581 51.1582 40.2273 51.1582 29.5807C51.1582 18.934 42.2605 10.3032 31.2846 10.3032C20.3087 10.3032 11.4109 18.934 11.4109 29.5807C11.4109 40.2273 20.3087 48.8581 31.2846 48.8581Z" fill="#F4F4F4"/>
<path d="M36.4281 48.2014C46.6197 45.5525 52.8265 35.682 50.7685 25.7866L12.4551 35.7447C15.7736 45.3124 26.2369 50.8501 36.4281 48.2014Z" fill="#E0E0E0"/>
<path d="M26.7733 15.6496C28.7031 15.6496 30.2676 14.1321 30.2676 12.2601C30.2676 11.5576 30.0473 10.9053 29.6701 10.3643C28.4977 10.4582 27.3176 10.6543 26.141 10.9603C25.1541 11.2168 24.2047 11.5411 23.2965 11.9267C23.2854 12.0366 23.2791 12.1478 23.2791 12.2603C23.2789 14.1321 24.8434 15.6496 26.7733 15.6496Z" fill="#E2D9D9"/>
<path d="M33.4535 15.2513C34.1914 15.2513 34.7896 14.671 34.7896 13.9552C34.7896 13.2394 34.1914 12.6592 33.4535 12.6592C32.7156 12.6592 32.1174 13.2394 32.1174 13.9552C32.1174 14.671 32.7156 15.2513 33.4535 15.2513Z" fill="#E2D9D9"/>
<path d="M26.7732 42.5663C28.9302 42.5663 30.6787 41.3166 30.6787 39.7751C30.6787 38.2336 28.9302 36.9839 26.7732 36.9839C24.6163 36.9839 22.8678 38.2336 22.8678 39.7751C22.8678 41.3166 24.6163 42.5663 26.7732 42.5663Z" fill="#D3CDCD"/>
<path d="M18.8057 29.72C20.6698 29.2356 21.8826 27.7628 21.5146 26.4304C21.1465 25.0981 19.3371 24.4108 17.473 24.8953C15.609 25.3797 14.3962 26.8525 14.7642 28.1849C15.1322 29.5172 16.9417 30.2045 18.8057 29.72Z" fill="#E2D9D9"/>
<path d="M24.8211 47.8126C25.0148 47.5398 25.1287 47.2094 25.1287 46.8531C25.1287 45.9172 24.3465 45.1582 23.3814 45.1582C22.5566 45.1582 21.8672 45.7135 21.6838 46.459C22.6859 46.9955 23.7353 47.4494 24.8211 47.8126Z" fill="#D3CDCD"/>
<path d="M40.442 40.7716C41.4069 40.7716 42.1891 40.0129 42.1891 39.077C42.1891 38.141 41.4069 37.3823 40.442 37.3823C39.4771 37.3823 38.6949 38.141 38.6949 39.077C38.6949 40.0129 39.4771 40.7716 40.442 40.7716Z" fill="#D3CDCD"/>
<path d="M16.1875 35.3887C17.1525 35.3887 17.9348 34.6299 17.9348 33.6939C17.9348 32.7578 17.1525 31.999 16.1875 31.999C15.2225 31.999 14.4402 32.7578 14.4402 33.6939C14.4402 34.6299 15.2225 35.3887 16.1875 35.3887Z" fill="#E2D9D9"/>
<path d="M44.8391 28.6938C47.5255 27.9956 49.2984 25.9638 48.7989 24.1557C48.2995 22.3475 45.7168 21.4478 43.0304 22.146C40.344 22.8442 38.5711 24.8759 39.0705 26.6841C39.57 28.4922 42.1526 29.392 44.8391 28.6938Z" fill="#E2D9D9"/>
<path d="M35.509 34.7905C37.8361 34.7905 39.7227 33.4515 39.7227 31.7998C39.7227 30.1481 37.8361 28.8091 35.509 28.8091C33.1818 28.8091 31.2953 30.1481 31.2953 31.7998C31.2953 33.4515 33.1818 34.7905 35.509 34.7905Z" fill="#D3CDCD"/>
<path d="M48.7668 31.7998C46.7234 31.7998 45.067 33.4066 45.067 35.3886C45.067 37.329 46.6557 38.9056 48.6396 38.9712C49.7887 36.9736 50.5738 34.778 50.9351 32.4851C50.3254 32.0558 49.5775 31.7998 48.7668 31.7998Z" fill="#D3CDCD"/>
<path d="M38.4895 44.3608C37.4678 44.3608 36.6395 45.1643 36.6395 46.1553C36.6395 46.8959 37.1022 47.5313 37.7623 47.8055C38.6104 47.5228 39.4277 47.1896 40.2109 46.8086C40.2928 46.6061 40.3393 46.3861 40.3393 46.1552C40.3393 45.1643 39.5109 44.3608 38.4895 44.3608Z" fill="#D3CDCD"/>
<path d="M16.167 62.5315C16.167 61.8318 16.757 61.2593 17.4783 61.2593H36.1504C36.8717 61.2593 37.4617 61.8316 37.4617 62.5315C37.4617 63.2311 36.8717 63.8036 36.1504 63.8036H17.4783C16.757 63.8034 16.167 63.2311 16.167 62.5315Z" fill="#656DB3"/>
<path d="M64.8814 41.2343C64.8814 40.1766 65.7736 39.3115 66.8639 39.3115H95.0881C96.1783 39.3115 97.0701 40.1766 97.0701 41.2343C97.0701 42.2918 96.1783 43.157 95.0881 43.157H66.8641C65.7738 43.157 64.8814 42.2916 64.8814 41.2343Z" fill="#656DB3"/>
<path d="M68.0176 70.0286C73.8638 70.0286 78.6031 65.4315 78.6031 59.7606C78.6031 54.0898 73.8638 49.4927 68.0176 49.4927C62.1713 49.4927 57.432 54.0898 57.432 59.7606C57.432 65.4315 62.1713 70.0286 68.0176 70.0286Z" fill="#B8E3EB"/>
<path d="M78.5985 60.0067C78.6141 59.4076 78.5772 58.8162 78.4883 58.2381C78.4776 58.2378 78.4666 58.2366 78.4563 58.2362C71.9529 58.0292 65.5084 56.3158 59.7959 53.2949C59.1242 54.0969 58.5725 55.0034 58.1709 55.9931C60.7225 57.6084 64.0391 58.1197 67.1377 58.5223C70.9014 59.0113 74.6649 59.5003 78.4285 59.9891C78.4832 59.9963 78.5404 60.0019 78.5985 60.0067Z" fill="#71B7D3"/>
<path d="M68.8988 62.749C65.125 61.5956 61.335 60.2556 57.4322 59.8013C57.4361 61.1314 57.7057 62.4186 58.2014 63.6051C60.4353 63.2575 62.7976 63.5087 65.0225 64.013C68.2019 64.7337 71.256 65.9339 74.4607 66.5407C74.8937 66.6227 75.3408 66.6892 75.7902 66.7317C76.2853 66.2131 76.7256 65.6421 77.1047 65.0277C74.3549 64.3159 71.6129 63.5782 68.8988 62.749Z" fill="#71B7D3"/>
<path d="M69.6809 49.62C66.8617 49.185 64.1277 49.8748 61.9588 51.3442C63.559 52.2632 65.5176 52.7477 67.3611 53.1546C69.0705 53.5318 70.7799 53.9088 72.4893 54.2862C74.125 54.6471 75.7768 55.0061 77.4473 55.0976C75.9606 52.2752 73.1541 50.156 69.6809 49.62Z" fill="#71B7D3"/>
<path d="M66.3547 69.9014C68.0762 70.167 69.7662 70.0111 71.3156 69.517C69.5689 69.2601 67.8283 68.4591 66.1951 67.7249C64.2316 66.8428 61.9666 66.0473 59.9123 66.3614C61.4941 68.1898 63.7336 69.4969 66.3547 69.9014Z" fill="#71B7D3"/>
<path d="M77.6172 64.0869C77.9234 63.446 78.1654 62.7666 78.3332 62.0543C76.535 62.2729 74.6615 61.7462 73.0266 60.9699C67.4154 58.3056 62.7067 59.3239 57.6594 57.6431C57.6234 57.8096 57.591 57.9775 57.5633 58.147C57.5236 58.3895 57.4961 58.6313 57.4744 58.8722C59.1613 58.8717 60.8561 59.258 62.5094 59.6441C67.6315 60.8408 72.7955 62.0539 77.6172 64.0869Z" fill="#71B7D3"/>
<path d="M18.1402 52.1363C19.0484 52.1363 19.7846 51.4222 19.7846 50.5413C19.7846 49.6604 19.0484 48.9463 18.1402 48.9463C17.2321 48.9463 16.4959 49.6604 16.4959 50.5413C16.4959 51.4222 17.2321 52.1363 18.1402 52.1363Z" fill="#656DB3"/>
<path d="M29.1191 58.1179C31.049 58.1179 32.6135 56.6004 32.6135 54.7284C32.6135 52.8564 31.049 51.3389 29.1191 51.3389C27.1893 51.3389 25.6248 52.8564 25.6248 54.7284C25.6248 56.6004 27.1893 58.1179 29.1191 58.1179Z" fill="#656DB3"/>
<path d="M81.9147 18.4886C84.0861 18.4886 85.8465 16.7811 85.8465 14.6747C85.8465 12.5684 84.0861 10.8608 81.9147 10.8608C79.7432 10.8608 77.9828 12.5684 77.9828 14.6747C77.9828 16.7811 79.7432 18.4886 81.9147 18.4886Z" fill="#656DB3"/>
<path d="M79.4322 80.6415C79.4322 82.6027 77.791 84.2054 75.7504 84.2054C73.7097 84.2054 72.0685 82.6027 72.0685 80.6415C72.0685 78.6804 73.7097 77.0776 75.7504 77.0776C77.791 77.0776 79.4322 78.6804 79.4322 80.6415Z" fill="#656DB3" stroke="white" stroke-width="0.5"/>
<path d="M82.682 50.5415C83.5903 50.5415 84.3266 49.8273 84.3266 48.9463C84.3266 48.0653 83.5903 47.3511 82.682 47.3511C81.7738 47.3511 81.0375 48.0653 81.0375 48.9463C81.0375 49.8273 81.7738 50.5415 82.682 50.5415Z" fill="#656DB3"/>
<path d="M59.8664 77.2588C60.7746 77.2588 61.5109 76.5446 61.5109 75.6636C61.5109 74.7826 60.7746 74.0684 59.8664 74.0684C58.9581 74.0684 58.2219 74.7826 58.2219 75.6636C58.2219 76.5446 58.9581 77.2588 59.8664 77.2588Z" fill="#656DB3"/>
<path d="M57.3998 15.4506C58.3081 15.4506 59.0443 14.7365 59.0443 13.8555C59.0443 12.9744 58.3081 12.2603 57.3998 12.2603C56.4916 12.2603 55.7553 12.9744 55.7553 13.8555C55.7553 14.7365 56.4916 15.4506 57.3998 15.4506Z" fill="#656DB3"/>
<path d="M59.8664 47.1518C60.7746 47.1518 61.5109 46.4376 61.5109 45.5566C61.5109 44.6756 60.7746 43.9614 59.8664 43.9614C58.9581 43.9614 58.2219 44.6756 58.2219 45.5566C58.2219 46.4376 58.9581 47.1518 59.8664 47.1518Z" fill="#656DB3"/>
<path d="M54.3652 26.644L10.0059 38.1735C9.01992 38.4299 7.99707 37.857 7.733 36.9006L7.67383 36.6865C7.40957 35.7302 8.00019 34.738 8.98613 34.4817L53.3455 22.9523C54.3312 22.696 55.3543 23.2689 55.6183 24.2252L55.6775 24.4393C55.9418 25.3957 55.3511 26.3878 54.3652 26.644Z" fill="#656DB3"/>
<path d="M10.0058 38.1735L54.365 26.6442C55.3279 26.3939 55.9111 25.4423 55.6922 24.5073L7.75507 36.9665C8.04764 37.8825 9.04335 38.4236 10.0058 38.1735Z" fill="#353B71"/>
<path d="M44.9641 77.4581C48.0859 77.4581 50.6166 75.0033 50.6166 71.9752C50.6166 68.947 48.0859 66.4922 44.9641 66.4922C41.8423 66.4922 39.3115 68.947 39.3115 71.9752C39.3115 75.0033 41.8423 77.4581 44.9641 77.4581Z" fill="#FF7143"/>
<path d="M43.0996 66.7986C43.0752 66.8069 43.0518 66.8164 43.0277 66.8251L46.7555 77.1738C46.7799 77.1658 46.8043 77.1592 46.8287 77.1508C49.7756 76.1522 51.3303 73.0251 50.3002 70.1663C49.2705 67.3074 46.0467 65.7998 43.0996 66.7986Z" fill="#E5603C"/>
<path d="M69.1791 8.77588L70.1936 10.7691L72.4609 11.0887L70.8203 12.6403L71.2074 14.8312L69.1791 13.7968L67.151 14.8312L67.5381 12.6403L65.8975 11.0887L68.1648 10.7691L69.1791 8.77588Z" fill="#F48257"/>
<path d="M85.7807 78.1157L86.7951 80.1091L89.0625 80.4286L87.4219 81.9802L87.809 84.1708L85.7807 83.1366L83.7525 84.1708L84.1396 81.9802L82.499 80.4286L84.7664 80.1091L85.7807 78.1157Z" fill="#F26B38"/>
<path d="M93.5932 45.1509L94.6076 47.1441L96.875 47.4637L95.2344 49.0153L95.6215 51.206L93.5932 50.1718L91.565 51.206L91.9521 49.0153L90.3115 47.4637L92.5789 47.1441L93.5932 45.1509Z" fill="#F26B38"/>
<path d="M6.87443 55.1919L7.88869 57.1853L10.1563 57.5047L8.51544 59.0564L8.90275 61.247L6.87443 60.2128L4.84611 61.247L5.23341 59.0564L3.59259 57.5047L5.86036 57.1853L6.87443 55.1919Z" fill="#F26B38"/>
</svg>
